<svg width="10" height="17" viewBox="0 0 10 17" fill="none" xmlns="http://www.w3.org/2000/svg">
<path d="M8.66627 9.48749H6.41834V16.2013H3.4211V9.48749H0.993331V6.70006H3.4211V4.60199C3.4211 3.80273 3.57096 3.12335 3.87068 2.56387C4.17041 2.00438 4.59002 1.58477 5.12953 1.30502C5.68901 1.0053 6.32842 0.855437 7.04776 0.855437C7.36747 0.855437 7.70715 0.875419 8.06682 0.915382C8.42649 0.935364 8.70623 0.965336 8.90605 1.0053L9.20577 1.03527V3.40309H8.00688C7.44739 3.40309 7.03777 3.55296 6.77801 3.85268C6.53823 4.13242 6.41834 4.4821 6.41834 4.90171V6.70006H9.08588L8.66627 9.48749Z" fill="#CEC5BC"/>
</svg>
