<svg width="33" height="30" viewBox="0 0 33 30" fill="none" xmlns="http://www.w3.org/2000/svg">
<path d="M32.4467 15.7307L18.1747 1.45871C17.8334 1.07471 17.4014 0.882708 16.8787 0.882708C16.356 0.882708 15.9134 1.07471 15.5507 1.45871L1.2787 15.7307C0.916031 16.1147 0.793365 16.44 0.910698 16.7067C1.02803 16.9734 1.35336 17.1067 1.8867 17.1067H4.8627V28.0827C4.8627 28.424 4.88403 28.6694 4.9267 28.8187C4.9907 29.0534 5.12403 29.2294 5.3267 29.3467C5.52937 29.464 5.8547 29.5227 6.3027 29.5227H13.2467V18.5147H20.4787V29.5227H27.7427C28.2547 29.5227 28.5854 29.384 28.7347 29.1067C28.82 28.936 28.8627 28.5947 28.8627 28.0827V17.1067H31.8387C32.372 17.1067 32.6974 16.9734 32.8147 16.7067C32.932 16.44 32.8094 16.1147 32.4467 15.7307Z" fill="#DDBFB5"/>
</svg>
