<svg width="14" height="15" viewBox="0 0 14 15" fill="none" xmlns="http://www.w3.org/2000/svg">
<path d="M4.79707 5.10061C5.47645 4.42124 6.2957 4.08155 7.25481 4.08155C8.21393 4.08155 9.02319 4.42124 9.68258 5.10061C10.362 5.76 10.7016 6.56926 10.7016 7.52838C10.7016 8.48749 10.362 9.30674 9.68258 9.98611C9.02319 10.6455 8.21393 10.9752 7.25481 10.9752C6.2957 10.9752 5.47645 10.6455 4.79707 9.98611C4.13768 9.30674 3.80798 8.48749 3.80798 7.52838C3.80798 6.56926 4.13768 5.76 4.79707 5.10061ZM5.66627 9.11691C6.10587 9.55651 6.63538 9.77631 7.25481 9.77631C7.87424 9.77631 8.40376 9.55651 8.84335 9.11691C9.28295 8.67732 9.50274 8.14781 9.50274 7.52838C9.50274 6.90895 9.28295 6.37943 8.84335 5.93984C8.40376 5.50024 7.87424 5.28045 7.25481 5.28045C6.63538 5.28045 6.10587 5.50024 5.66627 5.93984C5.22668 6.37943 5.00688 6.90895 5.00688 7.52838C5.00688 8.14781 5.22668 8.67732 5.66627 9.11691ZM11.391 3.39218C11.5509 3.53205 11.6308 3.71189 11.6308 3.93169C11.6308 4.15148 11.5509 4.34131 11.391 4.50116C11.2511 4.66102 11.0713 4.74094 10.8515 4.74094C10.6317 4.74094 10.4419 4.66102 10.282 4.50116C10.1222 4.34131 10.0422 4.15148 10.0422 3.93169C10.0422 3.71189 10.1222 3.53205 10.282 3.39218C10.4419 3.23233 10.6317 3.1524 10.8515 3.1524C11.0713 3.1524 11.2511 3.23233 11.391 3.39218ZM13.9387 4.77091C13.9586 5.31042 13.9686 6.22957 13.9686 7.52838C13.9686 8.82718 13.9586 9.74634 13.9387 10.2858C13.8787 11.5047 13.5091 12.4538 12.8297 13.1332C12.1703 13.7926 11.2312 14.1423 10.0123 14.1823C9.47277 14.2222 8.55362 14.2422 7.25481 14.2422C5.95601 14.2422 5.03685 14.2222 4.49735 14.1823C3.27847 14.1223 2.33934 13.7626 1.67994 13.1032C1.42018 12.8635 1.21038 12.5837 1.05052 12.264C0.890669 11.9443 0.77078 11.6346 0.690853 11.3349C0.630908 11.0351 0.600936 10.6855 0.600936 10.2858C0.560973 9.74634 0.540991 8.82718 0.540991 7.52838C0.540991 6.22957 0.560973 5.30043 0.600936 4.74094C0.660881 3.54204 1.02055 2.6129 1.67994 1.95351C2.33934 1.27413 3.27847 0.904472 4.49735 0.844527C5.03685 0.824545 5.95601 0.814555 7.25481 0.814555C8.55362 0.814555 9.47277 0.824545 10.0123 0.844527C11.2312 0.904472 12.1703 1.27413 12.8297 1.95351C13.5091 2.6129 13.8787 3.55204 13.9387 4.77091ZM12.5 11.4847C12.5599 11.3249 12.6099 11.1251 12.6498 10.8853C12.6898 10.6255 12.7198 10.3258 12.7398 9.98611C12.7597 9.62645 12.7697 9.33671 12.7697 9.11691C12.7697 8.89712 12.7697 8.5874 12.7697 8.18777C12.7697 7.78814 12.7697 7.56834 12.7697 7.52838C12.7697 7.46843 12.7697 7.24863 12.7697 6.86898C12.7697 6.46935 12.7697 6.15964 12.7697 5.93984C12.7697 5.72004 12.7597 5.4403 12.7398 5.10061C12.7198 4.74094 12.6898 4.44122 12.6498 4.20144C12.6099 3.94168 12.5599 3.73187 12.5 3.57202C12.2602 2.95259 11.8306 2.52298 11.2112 2.2832C11.0513 2.22326 10.8415 2.1733 10.5818 2.13334C10.342 2.09338 10.0422 2.06341 9.68258 2.04342C9.34289 2.02344 9.06315 2.01345 8.84335 2.01345C8.64354 2.01345 8.33382 2.01345 7.91421 2.01345C7.51457 2.01345 7.29478 2.01345 7.25481 2.01345C7.21485 2.01345 6.99505 2.01345 6.59542 2.01345C6.19579 2.01345 5.88607 2.01345 5.66627 2.01345C5.44648 2.01345 5.15674 2.02344 4.79707 2.04342C4.45739 2.06341 4.15766 2.09338 3.8979 2.13334C3.65812 2.1733 3.45831 2.22326 3.29845 2.2832C2.67902 2.52298 2.24942 2.95259 2.00964 3.57202C1.94969 3.73187 1.89974 3.94168 1.85978 4.20144C1.81981 4.44122 1.78984 4.74094 1.76986 5.10061C1.74988 5.4403 1.73989 5.72004 1.73989 5.93984C1.73989 6.13965 1.73989 6.44937 1.73989 6.86898C1.73989 7.26862 1.73989 7.48841 1.73989 7.52838C1.73989 7.6083 1.73989 7.79813 1.73989 8.09785C1.73989 8.3776 1.73989 8.61737 1.73989 8.81719C1.73989 8.99703 1.73989 9.2368 1.73989 9.53653C1.75987 9.83625 1.77985 10.096 1.79983 10.3158C1.81981 10.5156 1.84979 10.7254 1.88975 10.9452C1.92971 11.165 1.96968 11.3449 2.00964 11.4847C2.2694 12.1042 2.69901 12.5338 3.29845 12.7735C3.45831 12.8335 3.65812 12.8834 3.8979 12.9234C4.15766 12.9634 4.45739 12.9933 4.79707 13.0133C5.15674 13.0333 5.43649 13.0433 5.6363 13.0433C5.8561 13.0433 6.16582 13.0433 6.56545 13.0433C6.98506 13.0433 7.21485 13.0433 7.25481 13.0433C7.31476 13.0433 7.53456 13.0433 7.91421 13.0433C8.31384 13.0433 8.62355 13.0433 8.84335 13.0433C9.06315 13.0433 9.34289 13.0333 9.68258 13.0133C10.0422 12.9933 10.342 12.9634 10.5818 12.9234C10.8415 12.8834 11.0513 12.8335 11.2112 12.7735C11.8306 12.5138 12.2602 12.0842 12.5 11.4847Z" fill="#CEC5BC"/>
</svg>
