<svg width="33" height="31" viewBox="0 0 33 31" fill="none" xmlns="http://www.w3.org/2000/svg">
<path d="M30.3095 2.7388C29.2855 1.67213 28.0908 0.952135 26.7255 0.578802C25.3601 0.205469 23.9948 0.205469 22.6295 0.578802C21.2641 0.952135 20.0695 1.67213 19.0455 2.7388L16.9335 4.9788L14.8215 2.7388C13.7975 1.67213 12.6028 0.952135 11.2375 0.578802C9.87214 0.205469 8.50681 0.205469 7.14147 0.578802C5.77614 0.952135 4.58147 1.67213 3.55747 2.7388C2.40547 3.9548 1.62681 5.38414 1.22147 7.0268C0.837472 8.6268 0.837472 10.2268 1.22147 11.8268C1.62681 13.4695 2.40547 14.8988 3.55747 16.1148L16.9335 30.2268L30.3095 16.1148C31.4615 14.8988 32.2401 13.4695 32.6455 11.8268C33.0295 10.2268 33.0295 8.6268 32.6455 7.0268C32.2401 5.38414 31.4615 3.9548 30.3095 2.7388Z" fill="#DDBFB5"/>
</svg>
