<svg width="15" height="15" viewBox="0 0 15 15" fill="none" xmlns="http://www.w3.org/2000/svg">
<path d="M3.87996 14.2831H1.09253V5.32133H3.87996V14.2831ZM2.50123 4.09246C2.06164 4.09246 1.68199 3.93261 1.36228 3.6129C1.04258 3.29319 0.882723 2.91354 0.882723 2.47395C0.882723 2.03435 1.04258 1.6547 1.36228 1.335C1.68199 1.01529 2.06164 0.855437 2.50123 0.855437C2.78098 0.855437 3.04074 0.925373 3.28052 1.06524C3.54028 1.20512 3.74009 1.40493 3.87996 1.66469C4.03982 1.90447 4.11974 2.17422 4.11974 2.47395C4.11974 2.75369 4.03982 3.02344 3.87996 3.2832C3.74009 3.52298 3.54028 3.7228 3.28052 3.88265C3.04074 4.02252 2.78098 4.09246 2.50123 4.09246ZM14.3104 14.2831H11.5229V9.90711C11.5229 9.56742 11.5129 9.29767 11.493 9.09785C11.473 8.87805 11.423 8.63828 11.3431 8.37851C11.2632 8.09877 11.1133 7.88896 10.8935 7.74909C10.6937 7.60922 10.4239 7.53929 10.0843 7.53929C9.42486 7.53929 8.97528 7.74909 8.7355 8.16871C8.5157 8.58832 8.4058 9.14781 8.4058 9.84716V14.2831H5.61837V5.32133H8.31588V6.5502H8.34586C8.54567 6.15056 8.87537 5.81088 9.33495 5.53113C9.79452 5.23141 10.344 5.08155 10.9834 5.08155C11.6628 5.08155 12.2223 5.19145 12.6619 5.41124C13.1215 5.61106 13.4611 5.92078 13.6809 6.34039C13.9207 6.74002 14.0806 7.17962 14.1605 7.65918C14.2604 8.13874 14.3104 8.70821 14.3104 9.3676V14.2831Z" fill="#CEC5BC"/>
</svg>
