<svg width="26" height="33" viewBox="0 0 26 33" fill="none" xmlns="http://www.w3.org/2000/svg">
<path d="M2.83936 29.1467C2.83936 26.4801 3.14869 22.3627 3.76736 16.7947C2.78602 16.4107 2.02869 15.7494 1.49536 14.8107C1.00469 13.9361 0.71669 12.8481 0.631357 11.5467C0.52469 10.0107 0.642024 8.44275 0.983357 6.84275C1.36736 5.05075 1.96469 3.62141 2.77536 2.55475C3.71402 1.29608 4.85536 0.666748 6.19936 0.666748C7.54336 0.666748 8.69536 1.29608 9.65536 2.55475C10.4447 3.62141 11.0314 5.05075 11.4154 6.84275C11.7567 8.42141 11.8847 9.98941 11.7994 11.5467C11.6927 12.8481 11.394 13.9361 10.9034 14.8107C10.3487 15.7494 9.58069 16.4107 8.59936 16.7947C8.85536 18.9921 9.06869 21.1041 9.23936 23.1307C9.45269 25.6267 9.55936 27.6321 9.55936 29.1467C9.55936 29.7441 9.41002 30.3147 9.11136 30.8587C8.81269 31.4027 8.40736 31.8401 7.89536 32.1707C7.38336 32.5014 6.82336 32.6667 6.21536 32.6667C5.60736 32.6667 5.04202 32.5014 4.51936 32.1707C3.99669 31.8401 3.58602 31.4027 3.28736 30.8587C2.98869 30.3147 2.83936 29.7441 2.83936 29.1467ZM22.5194 15.8347C23.2447 21.9574 23.6074 26.3947 23.6074 29.1467C23.6074 29.7441 23.4527 30.3147 23.1434 30.8587C22.834 31.4027 22.418 31.8401 21.8954 32.1707C21.3727 32.5014 20.8074 32.6667 20.1994 32.6667C19.5914 32.6667 19.0314 32.5014 18.5194 32.1707C18.0074 31.8401 17.602 31.4027 17.3034 30.8587C17.0047 30.3147 16.8554 29.7441 16.8554 29.1467C16.8554 27.5041 16.9727 25.3067 17.2074 22.5547C17.4207 20.3361 17.666 18.0961 17.9434 15.8347C16.5994 15.2801 15.65 14.4267 15.0954 13.2747C14.7114 12.4214 14.562 11.5361 14.6474 10.6187L15.5754 1.62675C15.618 1.32808 15.7354 1.08808 15.9274 0.906746C16.1194 0.725412 16.338 0.645412 16.5834 0.666748C16.8287 0.68808 17.0314 0.805412 17.1914 1.01875C17.3514 1.23208 17.4314 1.48808 17.4314 1.78675V9.49875H19.3194V1.78675C19.3194 1.46675 19.4047 1.20008 19.5754 0.986746C19.746 0.773413 19.97 0.666748 20.2474 0.666748C20.5247 0.666748 20.7487 0.773413 20.9194 0.986746C21.09 1.20008 21.1754 1.46675 21.1754 1.78675V9.49875H23.0634V1.78675C23.0634 1.46675 23.1487 1.20008 23.3194 0.986746C23.49 0.773413 23.7034 0.666748 23.9594 0.666748C24.2154 0.666748 24.4234 0.757414 24.5834 0.938747C24.7434 1.12008 24.8447 1.34941 24.8874 1.62675L25.8154 10.5867C25.922 11.5681 25.7514 12.5067 25.3034 13.4027C24.7487 14.5121 23.8207 15.3227 22.5194 15.8347Z" fill="#DDBFB5"/>
</svg>
