<svg width="23" height="23" viewBox="0 0 23 23" fill="none" xmlns="http://www.w3.org/2000/svg">
<path d="M15.3102 9.35992C15.3102 7.725 14.7309 6.32817 13.5722 5.16944C12.4134 4.01071 11.0087 3.42341 9.35787 3.40754C7.70707 3.39167 6.30231 3.97897 5.14358 5.16944C3.98485 6.35992 3.40548 7.75675 3.40548 9.35992C3.40548 10.9631 3.98485 12.3679 5.14358 13.5742C6.30231 14.7806 7.70707 15.3599 9.35787 15.3123C11.0087 15.2647 12.4134 14.6853 13.5722 13.5742C14.7309 12.4631 15.3102 11.0583 15.3102 9.35992ZM22.1198 20.4313C22.1198 20.8917 21.9452 21.2885 21.596 21.6218C21.2468 21.9552 20.842 22.1218 20.3817 22.1218C19.9214 22.1218 19.5325 21.9552 19.215 21.6218L14.6674 17.0742C13.0801 18.1694 11.3102 18.7171 9.35787 18.7171C8.08802 18.7171 6.87374 18.471 5.71501 17.979C4.55628 17.4869 3.56421 16.8202 2.73882 15.979C1.91342 15.1377 1.24675 14.1456 0.738817 13.0028C0.23088 11.8599 -0.0151515 10.6456 0.000721501 9.35992C0.0165945 8.07421 0.262626 6.86786 0.738817 5.74087C1.21501 4.61389 1.88167 3.61389 2.73882 2.74087C3.59596 1.86786 4.58802 1.20119 5.71501 0.740871C6.84199 0.280554 8.05628 0.034523 9.35787 0.0027771C10.6595 -0.0289688 11.8737 0.217062 13.0007 0.740871C14.1277 1.26468 15.1198 1.93135 15.9769 2.74087C16.8341 3.5504 17.5007 4.5504 17.9769 5.74087C18.4531 6.93135 18.6991 8.1377 18.715 9.35992C18.715 11.3123 18.1674 13.0821 17.0722 14.6694L21.6198 19.2171C21.9531 19.5504 22.1198 19.9552 22.1198 20.4313Z" fill="#323232"/>
</svg>
