<svg width="26" height="26" viewBox="0 0 26 26" fill="none" xmlns="http://www.w3.org/2000/svg">
<path d="M25.0138 0.514822C25.5258 1.13349 25.6005 2.01882 25.2378 3.17082C24.8751 4.32282 24.2245 5.34682 23.2858 6.24282L20.4058 9.12282L23.2858 21.5388C23.3498 21.7735 23.2751 21.9655 23.0618 22.1148L20.7898 23.8428C20.7045 23.9068 20.5871 23.9388 20.4378 23.9388H20.3098C20.1391 23.8962 20.0111 23.8002 19.9258 23.6508L14.9658 14.5628L10.3258 19.2028L11.2858 22.6588C11.3498 22.8722 11.2965 23.0535 11.1258 23.2028L9.4298 24.9308C9.32313 25.0375 9.18447 25.0908 9.0138 25.0908H8.9818C8.7898 25.0695 8.64047 24.9948 8.5338 24.8668L5.1738 20.3548L0.661799 16.9948C0.533799 16.9095 0.459132 16.7815 0.437799 16.6108C0.416466 16.4402 0.469799 16.2802 0.597799 16.1308L2.3258 14.4028C2.43247 14.2962 2.56047 14.2428 2.7098 14.2428H2.8698L6.3258 15.2028L10.9658 10.5628L1.8778 5.60282C1.70713 5.49615 1.61113 5.34682 1.5898 5.15482C1.56847 4.96282 1.6218 4.80282 1.7498 4.67482L4.0218 2.40282C4.19247 2.25349 4.3738 2.20016 4.5658 2.24282L16.4378 5.09082L19.2858 2.24282C20.2031 1.32549 21.2271 0.685488 22.3578 0.322823C23.4885 -0.0398445 24.3738 0.0241547 25.0138 0.514822Z" fill="#DDBFB5"/>
</svg>
