<svg width="17" height="13" viewBox="0 0 17 13" fill="none" xmlns="http://www.w3.org/2000/svg">
<path d="M14.541 3.41124C14.5609 3.49117 14.5709 3.62105 14.5709 3.80089C14.5709 4.85991 14.3711 5.91894 13.9715 6.97796C13.5718 8.01701 13.0024 8.97612 12.263 9.85532C11.5437 10.7145 10.6046 11.4139 9.44564 11.9534C8.28671 12.4929 7.00789 12.7626 5.60917 12.7626C3.85079 12.7626 2.24227 12.2931 0.783613 11.3539C1.00341 11.3739 1.25318 11.3839 1.53292 11.3839C2.99158 11.3839 4.30038 10.9343 5.45931 10.0351C4.75995 10.0351 4.14052 9.83533 3.60102 9.4357C3.0815 9.01609 2.72183 8.49657 2.52201 7.87714C2.72183 7.89712 2.91165 7.90711 3.09149 7.90711C3.37123 7.90711 3.65097 7.87714 3.93072 7.81719C3.45116 7.71728 3.02155 7.51747 2.6419 7.21774C2.26225 6.91802 1.96253 6.55835 1.74273 6.13874C1.52293 5.69914 1.41303 5.22957 1.41303 4.73003V4.67009C1.85263 4.92985 2.3222 5.06972 2.82174 5.0897C1.8826 4.45029 1.41303 3.5711 1.41303 2.45213C1.41303 1.89264 1.5629 1.36313 1.86262 0.863589C2.6419 1.84269 3.59103 2.62197 4.71 3.20144C5.84895 3.7809 7.05784 4.10061 8.33666 4.16056C8.2967 3.92078 8.27672 3.681 8.27672 3.44122C8.27672 2.58201 8.57644 1.84269 9.17589 1.22326C9.79532 0.603828 10.5346 0.294113 11.3938 0.294113C12.313 0.294113 13.0823 0.62381 13.7017 1.2832C14.4211 1.14333 15.0904 0.893562 15.7099 0.533893C15.4701 1.27321 15.0105 1.85268 14.3311 2.27229C14.9306 2.19237 15.53 2.02252 16.1295 1.76276C15.6899 2.40217 15.1604 2.95167 14.541 3.41124Z" fill="#CEC5BC"/>
</svg>
